<svg id="Capa_1" enable-background="new 0 0 512.013 512.013" height="512" viewBox="0 0 512.013 512.013" width="512" xmlns="http://www.w3.org/2000/svg"><g><g><path d="m239.847.783c-85.08 8.12-148.84 83.75-148.84 170.52v211.76c0 84.89 49.29 128.95 105 128.95 57.9 0 105-47.1 105-105 0-43.23 20.43-84.54 54.66-110.5 39.95-30.32 65.34-78.15 65.34-131.5 0-94.65-81.02-173.78-181.16-164.23zm79.55 247.93c-6.6 5-16.01 3.72-21.02-2.88s-3.72-16.01 2.88-21.02c18.91-14.35 29.75-36.15 29.75-59.8 0-42.99-36.65-78.86-82.67-74.64-4.68.44-9.26 1.4-13.7 2.82 32.12 8.79 57.72 35.07 64.57 68.84 1.65 8.11-3.6 16.03-11.72 17.68-8.15 1.66-16.04-3.63-17.68-11.72-5.64-27.8-30.37-47.98-58.8-47.98-4.89 0-9.71.58-14.39 1.73-3.49 4.92-6.5 10.33-8.95 16.13-12.51 29.63-7.49 62.9 13.45 88.99 13.13 16.37 13.22 39.82 0 56.3-20.16 25.12-24.73 55.72-17.51 70.79 2.68 5.57 6.5 8.06 12.4 8.06 8.27 0 15-6.73 15-15 0-8.28 6.72-15 15-15s15 6.72 15 15c0 24.81-20.19 45-45 45-17.42 0-31.8-9.14-39.44-25.08-13.26-27.63-4.36-70.76 21.15-102.55 4.39-5.47 4.4-13.27 0-18.74-27.95-34.83-34.56-79.48-17.68-119.45 15.539-36.733 48.073-62.104 85.51-65.69 64.3-5.9 115.46 44.56 115.46 104.51 0 33.12-15.17 63.62-41.61 83.7z"/></g></g></svg>