<svg id="Layer_1" data-name="Layer 1" xmlns="http://www.w3.org/2000/svg" viewBox="0 0 512 512"><defs><style>.cls-1{fill:#cad8dd;}.cls-2{fill:#a6bbbf;}</style></defs><title>speech-bubble-7-flat</title><path class="cls-1" d="M448,51H64A64,64,0,0,0,0,115V443.21C0,459.06,19.16,467,30.37,455.79L76.8,409.36H448a64,64,0,0,0,64-64V115A64,64,0,0,0,448,51Z"/><path class="cls-2" d="M332.8,191.76H179.2a12.8,12.8,0,0,1,0-25.6H332.8a12.8,12.8,0,1,1,0,25.6Z"/><path class="cls-2" d="M332.8,243H179.2a12.8,12.8,0,1,1,0-25.6H332.8a12.8,12.8,0,1,1,0,25.6Z"/><path class="cls-2" d="M332.8,294.16H179.2a12.8,12.8,0,1,1,0-25.6H332.8a12.8,12.8,0,0,1,0,25.6Z"/></svg>