<?xml version="1.0" encoding="utf-8"?>
<!-- Generator: Adobe Illustrator 17.0.0, SVG Export Plug-In . SVG Version: 6.00 Build 0)  -->
<!DOCTYPE svg PUBLIC "-//W3C//DTD SVG 1.1//EN" "http://www.w3.org/Graphics/SVG/1.1/DTD/svg11.dtd">
<svg version="1.1" id="Layer_1" xmlns="http://www.w3.org/2000/svg" xmlns:xlink="http://www.w3.org/1999/xlink" x="0px" y="0px"
	 width="1400px" height="980px" viewBox="0 0 1400 980" enable-background="new 0 0 1400 980" xml:space="preserve">
<pattern  width="482.558" height="307.531" patternUnits="userSpaceOnUse" id="New_Pattern_2" viewBox="22.327 -407.952 482.558 307.531" overflow="visible">
	<g>
		<polygon fill="none" points="22.327,-407.952 504.884,-407.952 504.884,-100.421 22.327,-100.421 		"/>
		<g>
			<path fill="#A7966F" d="M379.552-103.549c12.353,5.044,23.935,12.886,34.729,20.61c12.306,8.805,27.23,19.985,33.065,34.517
				c0.593,1.477,3.012,0.833,2.411-0.665c-5.851-14.571-19.882-25.409-32.104-34.475c-11.507-8.536-24.107-16.956-37.436-22.398
				C378.724-106.569,378.08-104.15,379.552-103.549L379.552-103.549z"/>
			<path fill="#FDE5CF" d="M364.297-98.564c-3.572,4.316-9.972,15.703,0.962,19.19c7.274,2.169,11.808-9.051,11.207-15.109
				c4.24,4.792,11.98,6.919,15.67,1.417c3.385-5.048-0.387-11.014-9.69-12.296c5.833-2.873,15.935-7.775,8.921-14.434
				c-5.173-4.708-11.379-0.861-13.88,4.77c-0.903-6.736-2.458-15.295-10.552-13.865c-8.743,1.545-7.404,13.123-3.492,19.354
				c-6.875-5.261-17.677-3.581-17.611,5.104C345.895-96.239,354.816-91.666,364.297-98.564"/>
			<path fill="#A7966F" d="M374.004-107.071c1.701,1.408,2.019,3.833,0.709,5.416c-1.31,1.583-3.751,1.725-5.453,0.317
				c-1.701-1.408-2.019-3.833-0.709-5.416C369.861-108.337,372.302-108.479,374.004-107.071z"/>
			<path fill="#B4B7A4" d="M480.912-225.642c-3.423-15.16-4.542-31.853-15.112-44.14c-1.055-1.226-2.892,0.471-1.844,1.689
				c10.235,11.897,11.207,28.345,14.52,43.018C478.832-223.503,481.268-224.066,480.912-225.642L480.912-225.642z"/>
			<path fill="#A7966F" d="M433.61-118.31c0.137,25.893,6.182,50.836,16.505,74.512c3.292,7.549,8.14,14.604,12.55,21.525
				c4.706,7.385,9.527,14.753,14.809,21.743c0.959,1.269,3.131,0.025,2.159-1.262c-9.723-12.866-18.88-26.797-26.31-41.116
				c-11.789-22.723-17.079-49.995-17.213-75.402C436.102-119.921,433.602-119.922,433.61-118.31L433.61-118.31z"/>
			<path fill="#D1E9D0" d="M507.65-68.819c3.599-20.99,16.141-35.586,12.355-58.271c-0.795-6.424-3.229-18.188-10.699-15.307
				c-7.831,2.6-7.605,14.964-7.171,21.106c1.265,15.496,0.316,36.811,5.075,51.549"/>
			<path fill="#FBC170" d="M570.002-197.033c-0.171,14.909-5.171,28.02-12.166,40.988c-7.067,13.102-15.125,25.238-24.098,37.104
				c-8.903,11.774-17.879,23.695-23.914,37.256c-5.788,13.007-8.335,27.292-10.262,41.308c-0.217,1.576,2.192,2.256,2.411,0.665
				c2.059-14.974,4.943-29.976,11.397-43.748c6.533-13.94,16.449-26.118,25.639-38.346c8.824-11.741,16.414-24.115,23.193-37.14
				c6.228-11.966,10.144-24.525,10.299-38.086C572.521-198.645,570.021-198.644,570.002-197.033L570.002-197.033z"/>
			<path fill="#F8C0AA" d="M413.337-109.354c4.19-8.12,23.158-16.713,23.158-16.713s3.99,20.437-0.2,28.558
				s-12.725,12.052-19.065,8.781C410.89-91.999,409.148-101.233,413.337-109.354z"/>
			<path fill="#F8C0AA" d="M442.33-98.893c-5.719-7.126-5.869-27.949-5.869-27.949s20.297,4.653,26.016,11.779
				c5.719,7.126,5.846,16.523,0.282,20.988S448.05-91.766,442.33-98.893z"/>
			<path fill="#F8C0AA" d="M412.228-141.318c9.096,0.875,24.117,15.296,24.117,15.296s-17.495,11.294-26.59,10.419
				c-9.096-0.875-15.915-7.34-15.232-14.441C395.206-137.146,403.133-142.193,412.228-141.318z"/>
			<path fill="#F8C0AA" d="M445.902-150.332c0.999,9.083-10.054,26.73-10.054,26.73s-14.625-14.823-15.624-23.906
				c-0.999-9.083,3.939-17.078,11.03-17.858C438.345-166.145,444.903-159.414,445.902-150.332z"/>
			<path fill="#F8C0AA" d="M464.501-124.311c-8.062,4.3-28.552,0.59-28.552,0.59s8.332-19.084,16.395-23.384
				c8.062-4.3,17.32-2.684,20.677,3.61S472.563-128.612,464.501-124.311z"/>
			<path fill="#EE7B5F" d="M440.973-125.636c-0.253,2.633-2.464,4.574-4.937,4.337c-2.473-0.238-4.273-2.565-4.02-5.198
				c0.253-2.633,2.464-4.574,4.937-4.337C439.427-130.596,441.227-128.268,440.973-125.636z"/>
			<path fill="#FBD9C9" d="M483.488-220.403c-4.78,20.181,9.802,32.808,22.472,45.96c3.939-17.648-9.514-34.246-20.182-46.491
				L483.488-220.403z"/>
			<path fill="#FBD9C9" d="M486.326-221.061c2.527,20.679,19.921,26.885,36.277,34.665c-2.434-17.996-20.665-27.348-34.841-34.998
				L486.326-221.061z"/>
			<path fill="#FBD9C9" d="M476.364-218.752c13.146,16.027,5.636,33.773,0.069,51.152c-11.28-14.12-6.526-34.939-2.353-50.623
				L476.364-218.752z"/>
			<path fill="#FBD9C9" d="M481.223-219.878c13.146,16.027,15.108,36.547,9.541,53.926c-11.28-14.12-15.997-37.713-11.825-53.397
				L481.223-219.878z"/>
			<path fill="#FBD9C9" d="M473.533-218.096c6.822,19.684-6.027,32.899-17.254,47.072c-5.726-17.233,6.489-33.642,15.822-46.74
				L473.533-218.096z"/>
			<path fill="#B4B7A4" d="M469.033-215.408c1.168,5.04,4.884-1.132,10.908-2.528c6.024-1.396,12.077,2.512,10.908-2.528
				c-1.168-5.04-6.999-7.994-13.024-6.598C471.802-225.666,467.865-220.448,469.033-215.408z"/>
			<path fill="#98BE90" d="M447.261-190.821c-3.404-4.95-6.602-7.737-5.83-9.921c3.813-10.793,3.254-28.538-8.416-37.367
				c0.076,3.957-0.824,5.113-2.65,8.89c-2.49-8.25-4.516-17.81-13.381-21.925c0.23,3.521,0.076,3.957-1.904,8.171
				c-2.414-4.292-5.649-11.823-10.917-12.21c0.102,2.493,1.206,6.322-0.003,8.352c-4.624-3.599-10.841-8.253-16.855-7.921
				c0.897,7.196,4.004,13.698,7.755,16.989c-2.056,0.256-4.831-0.233-7.015-1.005c3.235,7.53,5.521,10.795,11.43,16.322
				c-3.829,1.104-4.677-0.67-9.225-0.312c6.293,8.611,14.976,14.627,21.092,16.788c-3.238,0.821-4.985,0.204-9.123,2.181
				c11.124,8.844,27.21,10.597,37.387,6.823C439.606-196.965,450.831-185.629,447.261-190.821z"/>
			<path fill="#D1E9D0" d="M448.704-190.599c-6.444-2.408-11.276-2.922-11.986-5.478c-3.512-12.63-15.694-28.909-32.442-29.526
				c2.671,3.663,2.586,5.338,3.354,10.081c-7.755-6.104-15.936-13.741-26.955-11.778c2.529,3.152,2.671,3.663,3.581,8.916
				c-5.084-2.441-13.066-7.38-18.262-4.283c1.733,2.271,5.284,5.139,5.484,7.837c-6.702-0.339-15.592-0.62-21.015,3.641
				c5.568,6.161,12.755,10.22,18.435,10.843c-1.76,1.591-4.685,2.955-7.241,3.666c7.982,4.939,12.271,6.5,21.444,7.804
				c-2.867,3.551-4.827,2.444-8.859,5.768c11.56,3.944,23.658,3.884,30.814,1.894c-2.498,2.898-4.543,3.466-7.126,8.039
				c16.245,0.989,32.487-7.933,39.556-18.159C437.486-191.334,455.464-188.074,448.704-190.599z"/>
		</g>
		<g>
			<path fill="#B4B7A4" d="M239.634-71.876c-3.423-15.16-4.542-31.853-15.112-44.14c-1.055-1.226-2.892,0.471-1.844,1.689
				c10.235,11.897,11.207,28.345,14.52,43.018C237.553-69.738,239.989-70.301,239.634-71.876L239.634-71.876z"/>
			<path fill="#98BE90" d="M205.982-37.056c-3.404-4.95-6.602-7.737-5.83-9.921c3.813-10.793,3.254-28.538-8.416-37.367
				c0.076,3.957-0.824,5.113-2.65,8.89c-2.49-8.25-4.516-17.81-13.381-21.925c0.23,3.521,0.076,3.957-1.904,8.171
				c-2.414-4.292-5.649-11.823-10.917-12.21c0.102,2.493,1.206,6.322-0.003,8.352c-4.624-3.599-10.841-8.253-16.855-7.921
				c0.897,7.196,4.004,13.698,7.755,16.989c-2.056,0.256-4.831-0.233-7.015-1.005c3.235,7.53,5.521,10.795,11.43,16.322
				c-3.829,1.104-4.677-0.67-9.225-0.312c6.293,8.611,14.976,14.627,21.092,16.788c-3.238,0.821-4.985,0.204-9.123,2.181
				c11.124,8.844,27.21,10.597,37.387,6.823C198.327-43.2,209.552-31.863,205.982-37.056z"/>
		</g>
		<g>
			<path fill="#D1E9D0" d="M46.129-108.698c0-10.985-0.915-21.969,0-32.954c0.915-9.612,2.746-28.835,11.442-35.7
				c5.95-4.577,10.985-2.746,14.188,3.662c5.035,9.612,0.458,16.935-4.577,25.173c-5.95,9.611-12.815,17.392-16.019,27.919
				c-1.373,4.577-1.831,8.696-5.492,11.9"/>
			<path fill="#D1E9D0" d="M59.86-128.837c18.765-10.069,37.988-9.154,53.55-26.088c4.577-4.577,12.358-13.731,5.492-17.85
				c-6.865-4.577-16.477,3.204-21.054,7.323c-11.442,10.527-28.835,22.885-37.531,35.7"/>
			<path fill="#D1E9D0" d="M25.092-68.819c3.599-20.99,16.141-35.586,12.355-58.271c-0.795-6.424-3.229-18.188-10.699-15.307
				c-7.831,2.6-7.605,14.964-7.171,21.106c1.265,15.496,0.316,36.811,5.075,51.549"/>
			<path fill="#D1E9D0" d="M28.737-79.864c18.765-10.069,37.988-9.154,53.55-26.088c4.577-4.577,12.358-13.731,5.492-17.85
				c-6.865-4.577-16.477,3.204-21.054,7.323c-11.442,10.527-28.835,22.885-37.531,35.7"/>
			<path fill="#FBC170" d="M87.444-197.033c-0.171,14.909-5.171,28.02-12.166,40.988c-7.067,13.102-15.125,25.238-24.098,37.104
				c-8.903,11.774-17.879,23.695-23.914,37.256c-5.788,13.007-8.335,27.292-10.262,41.308c-0.217,1.576,2.192,2.256,2.411,0.665
				c2.059-14.974,4.943-29.976,11.397-43.748c6.533-13.94,16.449-26.118,25.639-38.346c8.824-11.741,16.414-24.115,23.193-37.14
				c6.228-11.966,10.144-24.525,10.299-38.086C89.963-198.645,87.463-198.644,87.444-197.033L87.444-197.033z"/>
			<path fill="#E0B972" d="M71.014-206.554c-7.781,0-25.631,3.204-19.681,17.85c4.119,9.612,20.138,4.577,26.088-1.373
				c-1.373,8.696,3.204,18.765,12.358,17.85c8.398-0.84,11.442-10.069,4.577-21.054c8.238,3.662,22.427,10.069,23.342-3.204
				c0.458-9.612-9.154-12.815-17.392-10.527c6.408-6.865,14.188-16.019,5.492-23.342c-9.394-7.911-20.596,3.662-23.8,13.273
				c-0.458-11.9-11.82-21.875-21.054-14.188C52.233-224.018,55.238-210.554,71.014-206.554"/>
			<path fill="#587596" d="M88.71-203.728c0,3.038-2.314,5.501-5.167,5.501c-2.854,0-5.167-2.463-5.167-5.501
				s2.314-5.501,5.167-5.501C86.397-209.229,88.71-206.766,88.71-203.728z"/>
			<g>
				<path fill="#A7966F" d="M105.813-98.934c15.853-5.883,16.775-20.787,19.682-35.414c-13.749,5.309-19.037,22.495-22.274,35.341
					L105.813-98.934z"/>
				<path fill="#A7966F" d="M107.048-98.925c16.553,3.452,25.263-8.677,35.506-19.516c-14.467-2.819-28.087,8.92-37.662,18.076
					L107.048-98.925z"/>
			</g>
			<path fill="#FBD9C9" d="M0.93-220.403c-4.78,20.181,9.802,32.808,22.472,45.96c3.939-17.648-9.514-34.246-20.182-46.491
				L0.93-220.403z"/>
			<path fill="#FBD9C9" d="M3.768-221.061c2.527,20.679,19.921,26.885,36.277,34.665c-2.434-17.996-20.665-27.348-34.841-34.998
				L3.768-221.061z"/>
		</g>
		<g>
			<path fill="#A7966F" d="M379.552-411.079c12.353,5.044,23.935,12.887,34.729,20.61c12.306,8.805,27.23,19.985,33.065,34.517
				c0.593,1.477,3.012,0.833,2.411-0.665c-5.851-14.571-19.882-25.409-32.104-34.475c-11.507-8.536-24.107-16.956-37.436-22.398
				C378.724-414.1,378.08-411.68,379.552-411.079L379.552-411.079z"/>
			<path fill="#FDE5CF" d="M364.297-406.094c-3.572,4.316-9.972,15.704,0.962,19.19c7.274,2.169,11.808-9.051,11.207-15.109
				c4.24,4.792,11.98,6.919,15.67,1.417c3.385-5.048-0.387-11.014-9.69-12.296c5.833-2.873,15.935-7.775,8.921-14.434
				c-5.173-4.708-11.379-0.861-13.88,4.77c-0.903-6.736-2.458-15.295-10.552-13.865c-8.743,1.545-7.404,13.123-3.492,19.354
				c-6.875-5.261-17.677-3.581-17.611,5.104C345.895-403.769,354.816-399.197,364.297-406.094"/>
			<path fill="#A7966F" d="M374.004-414.602c1.701,1.408,2.019,3.833,0.709,5.416c-1.31,1.583-3.751,1.725-5.453,0.317
				c-1.701-1.408-2.019-3.833-0.709-5.416C369.861-415.868,372.302-416.01,374.004-414.602z"/>
			<path fill="#A7966F" d="M433.61-425.84c0.137,25.893,6.182,50.836,16.505,74.512c3.292,7.549,8.14,14.604,12.55,21.525
				c4.706,7.385,9.527,14.753,14.809,21.743c0.959,1.269,3.131,0.025,2.159-1.262c-9.723-12.866-18.88-26.797-26.31-41.116
				c-11.789-22.723-17.079-49.995-17.213-75.402C436.102-427.452,433.602-427.453,433.61-425.84L433.61-425.84z"/>
			<path fill="#D1E9D0" d="M507.65-376.35c3.599-20.99,16.141-35.586,12.355-58.271c-0.795-6.424-3.229-18.188-10.699-15.307
				c-7.831,2.6-7.605,14.964-7.171,21.106c1.265,15.496,0.316,36.811,5.075,51.549"/>
			<path fill="#FBC170" d="M570.002-504.563c-0.171,14.909-5.171,28.02-12.166,40.988c-7.067,13.102-15.125,25.238-24.098,37.104
				c-8.903,11.774-17.879,23.695-23.914,37.256c-5.788,13.007-8.335,27.292-10.262,41.308c-0.217,1.576,2.192,2.256,2.411,0.665
				c2.059-14.974,4.943-29.976,11.397-43.748c6.533-13.94,16.449-26.118,25.639-38.346c8.824-11.741,16.414-24.115,23.193-37.14
				c6.228-11.966,10.144-24.525,10.299-38.086C572.521-506.176,570.021-506.174,570.002-504.563L570.002-504.563z"/>
			<path fill="#F8C0AA" d="M413.337-416.884c4.19-8.12,23.158-16.713,23.158-16.713s3.99,20.437-0.2,28.558
				c-4.19,8.12-12.725,12.052-19.065,8.781C410.89-399.529,409.148-408.764,413.337-416.884z"/>
			<path fill="#F8C0AA" d="M442.33-406.423c-5.719-7.126-5.869-27.949-5.869-27.949s20.297,4.653,26.016,11.779
				c5.719,7.126,5.846,16.523,0.282,20.988C457.196-397.14,448.05-399.297,442.33-406.423z"/>
			<g>
				<path fill="#D99F70" d="M407.956-325.102c13.042,10.762,26.397,4.083,40.509-0.74c-11.491-9.23-29.01-5.183-41.746-1.538
					L407.956-325.102z"/>
				<path fill="#D99F70" d="M415.661-312.465c10.513,13.244,24.967,9.494,39.774,7.718c-9.315-11.422-27.293-11.114-40.509-10.204
					L415.661-312.465z"/>
				<path fill="#D99F70" d="M419.233-299.627c9.06,14.277,23.828,12.071,38.74,11.863c-8.06-12.339-25.971-13.926-39.21-14.413
					L419.233-299.627z"/>
				<path fill="#D99F70" d="M399.783-333.703c6.411,11.987-2.565,21.096-10.087,31.121c-5.427-10.516,2.208-23.309,8.375-32.484
					L399.783-333.703z"/>
				<path fill="#D99F70" d="M410.771-319.037c5.766,14.073-4.966,22.726-14.205,32.596c-4.844-12.317,4.803-25.201,12.477-34.34
					L410.771-319.037z"/>
				<path fill="#D99F70" d="M418.754-305.261c5.082,14.555-5.955,22.483-15.566,31.741c-4.247-12.724,5.906-24.982,13.93-33.617
					L418.754-305.261z"/>
				<path fill="#D99F70" d="M423.195-290.952c-1.416,14.816,9.846,20.91,20.142,28.495c1.067-12.924-10.321-23.336-19.105-30.546
					L423.195-290.952z"/>
				<path fill="#D99F70" d="M399.221-339.529c11.159,9.848,22.707,4.312,34.893,0.435c-9.833-8.455-24.949-5.353-35.943-2.479
					L399.221-339.529z"/>
				<path fill="#D99F70" d="M424.175-288.671c-9.352,5.799-8.409,16.189-8.74,26.605c8.09-5.172,9.654-17.616,10.375-26.839
					L424.175-288.671z"/>
				<path fill="#D99F70" d="M424.103-292.375c-3.4-5.504-4.366-11.921-6.216-18.023c-1.904-6.28-5.639-11.864-9.551-17.052
					c-4.381-5.809-9.374-11.21-13.268-17.37c-3.042-4.813-3.693-9.911-3.698-15.478c-0.002-1.612-2.502-1.612-2.5,0
					c0.004,4.565,0.355,8.833,2.136,13.083c2.5,5.969,7.212,11.025,11.212,16.021c5.304,6.626,10.519,13.318,13.259,21.46
					c2.12,6.299,2.916,12.87,6.468,18.62C422.79-289.745,424.953-291,424.103-292.375L424.103-292.375z"/>
			</g>
			<path fill="#A7966F" d="M466.557-323.56c-0.435-6.194-7.716-24.598-8.535-30.399c-1.895-9.387-5.04-33.824,4.754-41.102
				c7.381,11.199,9.531,30.088,10.81,42.448c0.716,10.202-0.721,19.09-6.695,27.931"/>
			<path fill="#A7966F" d="M412.533-381.448c3.803,3.331,18.737,9.599,22.548,12.469c6.514,4.299,22.386,16.575,20.606,26.733
				c-10.876-2.027-22.975-11.686-30.814-18.083c-6.264-5.487-10.472-11.515-11.901-20.266"/>
			<path fill="#98BE90" d="M527.936-351.569c-7.805-1.294-4.911,5.185-9.054,6.118c-5.07,1.142,2.107-14.882-3.956-15.765
				c-6.454-0.94-6.292,5.707-9.62,5.855c-3.331,0.148-1.121-7.552-5.239-10.942c-2.468-2.089-7.158-0.734-9.806,1.37
				c-2.654,2.108-5.047,6.374-3.573,9.252c2.365,4.781,9.789,4.475,8.77,8.733c-0.777,3.246-7.771,1.295-7.572,6.488
				c0.34,8.872,16.614,2.505,15.681,7.17c-0.835,4.174-8.951,1.756-9.325,8.474c-0.552,9.925,23.116,4.239,28.096,0.286
				C527.305-328.476,537.742-349.943,527.936-351.569z"/>
			<path fill="#D1E9D0" d="M496.08-354.975c15.712,19.735,35.134,40.386,32.425,67.544c-0.08,0.802,1.171,0.794,1.25,0
				c2.742-27.494-16.874-48.436-32.791-68.428C496.462-356.49,495.584-355.599,496.08-354.975L496.08-354.975z"/>
			<path fill="#CDC9C8" d="M545.891-292.211c-11.147,17.476-30.349,15.854-48.598,15.964c9.915-15.11,31.18-17.061,47.385-17.97
				L545.891-292.211z"/>
			<path fill="#CDC9C8" d="M548.472-287.943c-11.147,17.476-30.042,25.718-48.29,25.828c9.915-15.11,30.873-26.926,47.078-27.834
				L548.472-287.943z"/>
			<path fill="#CDC9C8" d="M544.388-294.697c-16.588,12.602-33.143,4.497-50.103-1.77c14.6-10.799,33.992-4.288,49.343,0.512
				L544.388-294.697z"/>
		</g>
		<g>
			<path fill="#A7966F" d="M138.273-257.314c12.353,5.044,23.935,12.887,34.729,20.61c12.306,8.805,27.23,19.985,33.065,34.517
				c0.593,1.477,3.012,0.833,2.411-0.665c-5.851-14.571-19.882-25.409-32.104-34.475c-11.507-8.536-24.107-16.956-37.436-22.398
				C137.445-260.334,136.801-257.915,138.273-257.314L138.273-257.314z"/>
			<path fill="#FDE5CF" d="M123.018-252.329c-3.572,4.316-9.972,15.704,0.962,19.19c7.274,2.169,11.808-9.051,11.207-15.109
				c4.24,4.792,11.98,6.919,15.67,1.417c3.385-5.048-0.387-11.014-9.69-12.296c5.833-2.873,15.935-7.775,8.921-14.434
				c-5.173-4.708-11.379-0.861-13.88,4.77c-0.903-6.736-2.458-15.295-10.552-13.865c-8.743,1.545-7.404,13.123-3.492,19.354
				c-6.875-5.261-17.677-3.581-17.611,5.104C104.616-250.004,113.537-245.431,123.018-252.329"/>
			<path fill="#A7966F" d="M132.725-260.837c1.701,1.408,2.019,3.833,0.709,5.416c-1.31,1.583-3.751,1.725-5.453,0.317
				c-1.701-1.408-2.019-3.833-0.709-5.416C128.582-262.103,131.024-262.245,132.725-260.837z"/>
			<path fill="#B4B7A4" d="M239.634-379.407c-3.423-15.16-4.542-31.853-15.112-44.14c-1.055-1.226-2.892,0.471-1.844,1.689
				c10.235,11.897,11.207,28.345,14.52,43.018C237.553-377.268,239.989-377.832,239.634-379.407L239.634-379.407z"/>
			<path fill="#A7966F" d="M192.331-272.075c0.137,25.893,6.182,50.836,16.505,74.512c3.292,7.549,8.14,14.604,12.55,21.525
				c4.706,7.385,9.527,14.753,14.809,21.743c0.959,1.269,3.131,0.025,2.159-1.262c-9.723-12.866-18.88-26.797-26.31-41.116
				c-11.789-22.723-17.079-49.995-17.213-75.402C194.823-273.687,192.323-273.688,192.331-272.075L192.331-272.075z"/>
			<path fill="#D1E9D0" d="M287.408-262.464c0-10.985-0.915-21.969,0-32.954c0.915-9.612,2.746-28.835,11.442-35.7
				c5.95-4.577,10.985-2.746,14.188,3.662c5.035,9.612,0.458,16.935-4.577,25.173c-5.95,9.612-12.815,17.392-16.019,27.919
				c-1.373,4.577-1.831,8.696-5.492,11.9"/>
			<path fill="#D1E9D0" d="M301.139-282.602c18.765-10.069,37.988-9.154,53.55-26.088c4.577-4.577,12.358-13.731,5.492-17.85
				c-6.865-4.577-16.477,3.204-21.054,7.323c-11.442,10.527-28.835,22.885-37.531,35.7"/>
			<path fill="#D1E9D0" d="M266.371-222.585c3.599-20.99,16.141-35.586,12.355-58.271c-0.795-6.424-3.229-18.188-10.699-15.307
				c-7.831,2.6-7.605,14.964-7.171,21.106c1.265,15.496,0.316,36.811,5.075,51.549"/>
			<path fill="#D1E9D0" d="M270.016-233.629c18.765-10.069,37.988-9.154,53.55-26.088c4.577-4.577,12.358-13.731,5.492-17.85
				c-6.865-4.577-16.477,3.204-21.054,7.323c-11.442,10.527-28.835,22.885-37.531,35.7"/>
			<path fill="#FBC170" d="M328.723-350.798c-0.171,14.909-5.171,28.02-12.166,40.988c-7.067,13.102-15.125,25.238-24.098,37.104
				c-8.903,11.774-17.879,23.695-23.914,37.256c-5.788,13.007-8.335,27.292-10.262,41.308c-0.217,1.576,2.192,2.256,2.411,0.665
				c2.059-14.974,4.943-29.976,11.397-43.748c6.533-13.94,16.449-26.118,25.639-38.346c8.824-11.741,16.414-24.115,23.193-37.14
				c6.228-11.966,10.144-24.525,10.299-38.086C331.242-352.411,328.742-352.409,328.723-350.798L328.723-350.798z"/>
			<path fill="#F8C0AA" d="M172.059-263.119c4.19-8.12,23.158-16.713,23.158-16.713s3.99,20.437-0.2,28.558
				c-4.19,8.12-12.725,12.052-19.065,8.781C169.612-245.764,167.869-254.998,172.059-263.119z"/>
			<path fill="#F8C0AA" d="M201.051-252.658c-5.719-7.126-5.869-27.949-5.869-27.949s20.297,4.653,26.016,11.779
				s5.846,16.523,0.282,20.988C215.917-243.374,206.771-245.532,201.051-252.658z"/>
			<path fill="#F8C0AA" d="M170.949-295.084c9.096,0.875,24.117,15.296,24.117,15.296s-17.495,11.294-26.59,10.419
				s-15.915-7.34-15.232-14.441C153.927-290.911,161.854-295.958,170.949-295.084z"/>
			<path fill="#F8C0AA" d="M204.623-304.097c0.999,9.083-10.054,26.73-10.054,26.73s-14.625-14.823-15.624-23.906
				s3.939-17.078,11.03-17.858C197.066-319.91,203.624-313.18,204.623-304.097z"/>
			<path fill="#F8C0AA" d="M223.222-278.077c-8.062,4.3-28.552,0.59-28.552,0.59s8.332-19.084,16.395-23.384
				c8.062-4.3,17.32-2.684,20.677,3.61C235.098-290.966,231.284-282.377,223.222-278.077z"/>
			<path fill="#EE7B5F" d="M199.695-279.401c-0.253,2.633-2.464,4.574-4.937,4.337c-2.473-0.238-4.273-2.565-4.02-5.198
				c0.253-2.633,2.464-4.574,4.937-4.337C198.148-284.361,199.948-282.034,199.695-279.401z"/>
			<path fill="#E0B972" d="M312.293-360.32c-7.781,0-25.631,3.204-19.681,17.85c4.119,9.612,20.138,4.577,26.088-1.373
				c-1.373,8.696,3.204,18.765,12.358,17.85c8.398-0.84,11.442-10.069,4.577-21.054c8.238,3.662,22.427,10.069,23.342-3.204
				c0.458-9.612-9.154-12.815-17.392-10.527c6.408-6.865,14.188-16.019,5.492-23.342c-9.394-7.911-20.596,3.662-23.8,13.273
				c-0.458-11.9-11.82-21.875-21.054-14.188C293.512-377.783,296.517-364.319,312.293-360.32"/>
			<path fill="#587596" d="M329.989-357.493c0,3.038-2.314,5.501-5.167,5.501c-2.854,0-5.167-2.463-5.167-5.501
				s2.314-5.501,5.167-5.501C327.676-362.994,329.989-360.531,329.989-357.493z"/>
			<g>
				<path fill="#D99F70" d="M166.678-171.337c13.042,10.762,26.397,4.083,40.509-0.74c-11.491-9.23-29.01-5.183-41.746-1.538
					L166.678-171.337z"/>
				<path fill="#D99F70" d="M174.382-158.699c10.513,13.244,24.967,9.494,39.774,7.718c-9.315-11.422-27.293-11.114-40.509-10.204
					L174.382-158.699z"/>
				<path fill="#D99F70" d="M177.954-145.862c9.06,14.277,23.828,12.071,38.74,11.863c-8.06-12.339-25.971-13.926-39.21-14.413
					L177.954-145.862z"/>
				<path fill="#A7966F" d="M347.092-252.699c15.853-5.883,16.775-20.787,19.682-35.414c-13.749,5.309-19.037,22.495-22.274,35.341
					L347.092-252.699z"/>
				<path fill="#A7966F" d="M348.327-252.69c16.553,3.452,25.263-8.677,35.506-19.516c-14.467-2.819-28.086,8.92-37.662,18.076
					L348.327-252.69z"/>
				<path fill="#D99F70" d="M158.504-179.937c6.411,11.987-2.565,21.096-10.087,31.122c-5.427-10.516,2.208-23.309,8.375-32.484
					L158.504-179.937z"/>
				<path fill="#D99F70" d="M169.492-165.271c5.766,14.073-4.966,22.726-14.205,32.596c-4.844-12.317,4.803-25.201,12.477-34.34
					L169.492-165.271z"/>
				<path fill="#D99F70" d="M177.475-151.496c5.082,14.555-5.955,22.483-15.566,31.741c-4.247-12.724,5.906-24.982,13.93-33.617
					L177.475-151.496z"/>
				<path fill="#D99F70" d="M181.916-137.187c-1.416,14.816,9.846,20.91,20.142,28.495c1.067-12.924-10.321-23.336-19.105-30.546
					L181.916-137.187z"/>
				<path fill="#D99F70" d="M157.942-185.764c11.159,9.848,22.707,4.312,34.893,0.435c-9.833-8.455-24.949-5.353-35.943-2.479
					L157.942-185.764z"/>
				<path fill="#D99F70" d="M182.896-134.906c-9.352,5.799-8.409,16.189-8.74,26.605c8.09-5.172,9.654-17.616,10.375-26.839
					L182.896-134.906z"/>
				<path fill="#D99F70" d="M182.824-138.61c-3.4-5.504-4.366-11.921-6.216-18.023c-1.904-6.28-5.639-11.864-9.551-17.052
					c-4.381-5.809-9.374-11.21-13.268-17.37c-3.042-4.813-3.693-9.911-3.698-15.478c-0.002-1.612-2.502-1.612-2.5,0
					c0.004,4.565,0.355,8.833,2.136,13.083c2.5,5.969,7.212,11.025,11.212,16.021c5.304,6.626,10.519,13.318,13.259,21.46
					c2.12,6.299,2.916,12.87,6.468,18.62C181.511-135.98,183.674-137.234,182.824-138.61L182.824-138.61z"/>
			</g>
			<path fill="#A7966F" d="M225.278-169.795c-0.435-6.194-7.716-24.598-8.535-30.399c-1.895-9.387-5.04-33.824,4.754-41.102
				c7.381,11.199,9.531,30.088,10.81,42.448c0.716,10.202-0.721,19.09-6.695,27.931"/>
			<path fill="#A7966F" d="M171.254-227.682c3.803,3.331,18.737,9.599,22.549,12.469c6.514,4.299,22.386,16.575,20.606,26.733
				c-10.876-2.027-22.975-11.686-30.814-18.083c-6.264-5.487-10.472-11.515-11.901-20.266"/>
			<path fill="#FBD9C9" d="M242.209-374.169c-4.78,20.181,9.802,32.808,22.472,45.96c3.939-17.648-9.514-34.246-20.182-46.491
				L242.209-374.169z"/>
			<path fill="#FBD9C9" d="M245.047-374.827c2.527,20.679,19.921,26.885,36.277,34.665c-2.434-17.996-20.665-27.348-34.841-34.998
				L245.047-374.827z"/>
			<path fill="#FBD9C9" d="M235.085-372.518c13.146,16.027,5.636,33.773,0.069,51.152c-11.28-14.12-6.526-34.939-2.353-50.623
				L235.085-372.518z"/>
			<path fill="#FBD9C9" d="M239.944-373.644c13.146,16.027,15.108,36.547,9.541,53.926c-11.28-14.12-15.997-37.713-11.825-53.397
				L239.944-373.644z"/>
			<path fill="#FBD9C9" d="M232.255-371.862c6.822,19.684-6.027,32.899-17.254,47.072c-5.726-17.233,6.489-33.642,15.822-46.74
				L232.255-371.862z"/>
			<path fill="#B4B7A4" d="M227.754-369.173c1.168,5.04,4.884-1.132,10.908-2.528c6.024-1.396,12.077,2.512,10.908-2.528
				c-1.168-5.04-6.999-7.994-13.024-6.598S226.586-374.213,227.754-369.173z"/>
			<path fill="#98BE90" d="M337.948-198.63c-4.131-7.918-8.01-0.91-11.664-4.013c-4.471-3.797,14.853-8.201,11.534-14.269
				c-3.533-6.459-9.418-1.801-11.811-4.703c-2.394-2.904,6.051-6.137,6.313-12.152c0.209-3.644-4.197-6.954-7.892-7.914
				c-3.703-0.962-9.175-0.225-10.77,3.057c-2.706,5.379,2.608,11.867-1.924,13.837c-3.455,1.503-6.443-6.13-10.991-2.426
				c-7.771,6.329,9.018,16.685,4.177,19.01c-4.331,2.08-7.659-6.881-13.972-2.659c-9.327,6.239,11.867,23.726,18.813,25.534
				C316.69-183.524,343.137-188.683,337.948-198.63z"/>
			<path fill="#D1E9D0" d="M319.492-229.741c-3.815,23.341-10.656,45.739-21.001,67.011c-2.863,5.888-6.04,11.635-8.669,17.635
				c-1.564,3.57-2.998,7.469-2.596,11.43c0.081,0.794,1.331,0.802,1.25,0c-0.445-4.385,1.429-8.654,3.21-12.551
				c2.863-6.267,6.191-12.32,9.164-18.536c9.806-20.499,16.185-42.25,19.848-64.657
				C320.827-230.197,319.622-230.536,319.492-229.741L319.492-229.741z"/>
			<path fill="#98BE90" d="M286.657-197.804c-7.805-1.294-4.911,5.185-9.054,6.119c-5.07,1.142,2.107-14.882-3.956-15.765
				c-6.454-0.94-6.292,5.707-9.62,5.855c-3.331,0.148-1.121-7.552-5.239-10.942c-2.468-2.089-7.158-0.734-9.806,1.37
				c-2.654,2.108-5.047,6.374-3.573,9.252c2.365,4.781,9.789,4.475,8.77,8.733c-0.777,3.246-7.771,1.295-7.572,6.488
				c0.34,8.872,16.614,2.505,15.681,7.17c-0.835,4.174-8.951,1.756-9.325,8.474c-0.552,9.925,23.116,4.239,28.096,0.286
				C286.026-174.71,296.463-196.178,286.657-197.804z"/>
			<path fill="#D1E9D0" d="M254.801-201.21c15.712,19.735,35.134,40.386,32.425,67.544c-0.08,0.802,1.171,0.794,1.25,0
				c2.742-27.494-16.874-48.436-32.791-68.428C255.183-202.724,254.305-201.834,254.801-201.21L254.801-201.21z"/>
			<path fill="#CDC9C8" d="M308.396-132.188c-20.667,1.729-28.137,19.513-36.7,35.643c17.998-1.741,29.593-19.686,37.916-33.631
				L308.396-132.188z"/>
			<path fill="#CDC9C8" d="M309.903-129.695c-18.87,8.829-19.362,27.29-21.674,45.254c16.348-7.907,19.571-28.141,22.436-43.992
				L309.903-129.695z"/>
			<path fill="#CDC9C8" d="M304.612-138.446c-11.147,17.476-30.349,15.854-48.598,15.964c9.915-15.11,31.18-17.061,47.385-17.97
				L304.612-138.446z"/>
			<path fill="#CDC9C8" d="M307.193-134.177c-11.147,17.476-30.042,25.718-48.29,25.828c9.915-15.11,30.873-26.926,47.078-27.834
				L307.193-134.177z"/>
			<path fill="#CDC9C8" d="M303.109-140.932c-16.588,12.602-33.143,4.497-50.103-1.77c14.6-10.799,33.992-4.288,49.343,0.512
				L303.109-140.932z"/>
			<path fill="#ED7965" d="M299.155-144.374c-4.427,2.677,2.594,4.29,5.793,9.582c3.2,5.292,1.366,12.259,5.793,9.582
				c4.427-2.677,5.423-9.137,2.223-14.429C309.765-144.93,303.583-147.051,299.155-144.374z"/>
			<path fill="#ED7965" d="M312.691-136.344c13.234-7.896,28.709-14.107,37.042-27.853c0.828-1.366-1.148-2.901-1.982-1.525
				c-8.209,13.541-23.549,19.619-36.59,27.4C309.778-137.496,311.324-135.528,312.691-136.344L312.691-136.344z"/>
			<path fill="#ED7965" d="M350.225-170.553c4.89,8.94,0.517,23.876-4.979,33.544c-2.169,4.087-11.343,18.754-16.224,20.912
				c-3.581-9.334,4.47-29.271,10.896-39.104C342.842-159.745,346.573-166.362,350.225-170.553"/>
			<path fill="#98BE90" d="M205.982-344.586c-3.404-4.95-6.602-7.737-5.83-9.921c3.813-10.793,3.254-28.538-8.416-37.367
				c0.076,3.957-0.824,5.113-2.65,8.89c-2.49-8.25-4.516-17.81-13.381-21.925c0.23,3.521,0.076,3.957-1.904,8.171
				c-2.414-4.292-5.649-11.823-10.917-12.21c0.102,2.493,1.206,6.322-0.003,8.352c-4.624-3.599-10.841-8.253-16.855-7.921
				c0.897,7.196,4.004,13.698,7.755,16.989c-2.056,0.256-4.831-0.233-7.015-1.005c3.235,7.53,5.521,10.795,11.43,16.322
				c-3.829,1.104-4.677-0.67-9.225-0.312c6.293,8.611,14.976,14.627,21.092,16.788c-3.238,0.821-4.985,0.204-9.123,2.181
				c11.124,8.844,27.21,10.597,37.387,6.823C198.327-350.73,209.552-339.394,205.982-344.586z"/>
			<path fill="#D1E9D0" d="M207.425-344.365c-6.444-2.408-11.276-2.922-11.986-5.478c-3.512-12.63-15.694-28.909-32.442-29.526
				c2.671,3.663,2.586,5.338,3.354,10.081c-7.755-6.104-15.936-13.741-26.955-11.778c2.529,3.152,2.671,3.663,3.581,8.917
				c-5.084-2.441-13.066-7.38-18.262-4.283c1.733,2.271,5.284,5.139,5.484,7.837c-6.702-0.339-15.592-0.62-21.015,3.641
				c5.568,6.161,12.755,10.22,18.435,10.843c-1.76,1.591-4.685,2.955-7.241,3.666c7.982,4.939,12.271,6.5,21.444,7.804
				c-2.867,3.551-4.827,2.444-8.859,5.768c11.56,3.944,23.658,3.884,30.814,1.894c-2.498,2.898-4.543,3.466-7.126,8.039
				c16.245,0.989,32.487-7.933,39.556-18.159C196.207-345.1,214.185-341.839,207.425-344.365z"/>
		</g>
		<g>
			<path fill="#D1E9D0" d="M25.092-376.35c3.599-20.99,16.141-35.586,12.355-58.271c-0.795-6.424-3.229-18.188-10.699-15.307
				c-7.831,2.6-7.605,14.964-7.171,21.106c1.265,15.496,0.316,36.811,5.075,51.549"/>
			<path fill="#D1E9D0" d="M28.737-387.394c18.765-10.069,37.988-9.154,53.55-26.088c4.577-4.577,12.358-13.731,5.492-17.85
				c-6.865-4.577-16.477,3.204-21.054,7.323c-11.442,10.527-28.835,22.885-37.531,35.7"/>
			<path fill="#FBC170" d="M87.444-504.563c-0.171,14.909-5.171,28.02-12.166,40.988c-7.067,13.102-15.125,25.238-24.098,37.104
				c-8.903,11.774-17.879,23.695-23.914,37.256c-5.788,13.007-8.335,27.292-10.262,41.308c-0.217,1.576,2.192,2.256,2.411,0.665
				c2.059-14.974,4.943-29.976,11.397-43.748c6.533-13.94,16.449-26.118,25.639-38.346c8.824-11.741,16.414-24.115,23.193-37.14
				c6.228-11.966,10.144-24.525,10.299-38.086C89.963-506.176,87.463-506.174,87.444-504.563L87.444-504.563z"/>
			<g>
				<path fill="#A7966F" d="M105.813-406.465c15.853-5.883,16.775-20.787,19.682-35.414c-13.749,5.309-19.037,22.495-22.274,35.341
					L105.813-406.465z"/>
				<path fill="#A7966F" d="M107.048-406.456c16.553,3.452,25.263-8.677,35.506-19.516c-14.467-2.819-28.087,8.92-37.662,18.076
					L107.048-406.456z"/>
			</g>
			<path fill="#98BE90" d="M96.669-352.395c-4.131-7.918-8.01-0.91-11.664-4.013c-4.471-3.797,14.853-8.201,11.534-14.269
				c-3.533-6.459-9.418-1.801-11.811-4.703c-2.394-2.904,6.051-6.137,6.313-12.152c0.209-3.644-4.197-6.954-7.892-7.914
				c-3.703-0.962-9.175-0.225-10.77,3.057c-2.706,5.379,2.608,11.867-1.924,13.837c-3.455,1.503-6.443-6.13-10.991-2.426
				c-7.771,6.329,9.018,16.685,4.177,19.01c-4.331,2.08-7.659-6.881-13.972-2.659c-9.327,6.239,11.867,23.726,18.813,25.534
				C75.411-337.289,101.858-342.448,96.669-352.395z"/>
			<path fill="#D1E9D0" d="M78.213-383.507c-3.815,23.341-10.656,45.739-21.001,67.011c-2.863,5.888-6.04,11.635-8.669,17.635
				c-1.564,3.57-2.998,7.469-2.596,11.43c0.081,0.794,1.331,0.802,1.25,0c-0.445-4.385,1.429-8.654,3.21-12.551
				c2.863-6.267,6.191-12.32,9.164-18.536c9.806-20.499,16.185-42.25,19.848-64.657C79.548-383.963,78.343-384.301,78.213-383.507
				L78.213-383.507z"/>
			<path fill="#98BE90" d="M45.378-351.569c-7.805-1.294-4.911,5.185-9.054,6.118c-5.07,1.142,2.107-14.882-3.956-15.765
				c-6.454-0.94-6.292,5.707-9.62,5.855c-3.331,0.148-1.121-7.552-5.239-10.942c-2.468-2.089-7.158-0.734-9.806,1.37
				c-2.654,2.108-5.047,6.374-3.573,9.252c2.365,4.781,9.789,4.475,8.77,8.733c-0.777,3.246-7.771,1.295-7.572,6.488
				c0.34,8.872,16.614,2.505,15.681,7.17c-0.835,4.174-8.951,1.756-9.325,8.474c-0.552,9.925,23.116,4.239,28.096,0.286
				C44.747-328.476,55.184-349.943,45.378-351.569z"/>
			<path fill="#D1E9D0" d="M13.522-354.975c15.712,19.735,35.134,40.386,32.425,67.544c-0.08,0.802,1.171,0.794,1.25,0
				c2.742-27.494-16.874-48.436-32.791-68.428C13.904-356.49,13.026-355.599,13.522-354.975L13.522-354.975z"/>
			<path fill="#CDC9C8" d="M67.117-285.953c-20.667,1.729-28.137,19.513-36.7,35.643c17.998-1.741,29.593-19.686,37.916-33.631
				L67.117-285.953z"/>
			<path fill="#CDC9C8" d="M68.624-283.46c-18.87,8.829-19.363,27.29-21.674,45.254c16.348-7.907,19.571-28.141,22.436-43.992
				L68.624-283.46z"/>
			<path fill="#CDC9C8" d="M63.333-292.211c-11.147,17.476-30.349,15.854-48.598,15.964c9.915-15.11,31.18-17.061,47.385-17.97
				L63.333-292.211z"/>
			<path fill="#CDC9C8" d="M65.914-287.943c-11.147,17.476-30.042,25.718-48.29,25.828c9.915-15.11,30.873-26.926,47.078-27.834
				L65.914-287.943z"/>
			<path fill="#CDC9C8" d="M61.83-294.697c-16.588,12.602-33.143,4.497-50.103-1.77c14.6-10.799,33.992-4.288,49.343,0.512
				L61.83-294.697z"/>
			<path fill="#ED7965" d="M57.876-298.139c-4.427,2.677,2.594,4.29,5.793,9.582c3.2,5.292,1.366,12.259,5.793,9.582
				c4.427-2.677,5.423-9.137,2.223-14.429C68.487-298.696,62.304-300.816,57.876-298.139z"/>
			<path fill="#ED7965" d="M71.412-290.109c13.234-7.896,28.709-14.107,37.042-27.853c0.828-1.366-1.148-2.901-1.982-1.525
				c-8.209,13.541-23.549,19.619-36.59,27.4C68.499-291.261,70.045-289.294,71.412-290.109L71.412-290.109z"/>
			<path fill="#ED7965" d="M108.947-324.318c4.89,8.94,0.517,23.876-4.979,33.544c-2.169,4.087-11.343,18.754-16.224,20.912
				c-3.581-9.334,4.47-29.271,10.896-39.104C101.563-313.51,105.294-320.128,108.947-324.318"/>
		</g>
		<g>
			<path fill="#CDC9C8" d="M308.396-439.718c-20.667,1.729-28.137,19.513-36.7,35.643c17.998-1.741,29.593-19.686,37.916-33.631
				L308.396-439.718z"/>
			<path fill="#CDC9C8" d="M309.903-437.225c-18.87,8.829-19.362,27.29-21.674,45.254c16.348-7.907,19.571-28.141,22.436-43.992
				L309.903-437.225z"/>
		</g>
	</g>
</pattern>
<rect fill="url(#New_Pattern_2)" width="1400" height="980"/>
</svg>
