<svg xmlns="http://www.w3.org/2000/svg" xmlns:xlink="http://www.w3.org/1999/xlink" xmlns:fi="http://pattern.flaticon.com/" x="0" y="0" width="1080" height="2160" viewBox="0 0 700 1400"><rect x="0px" y="0px" width="100%" height="100%" opacity="0" fill="#74b9ff"/><defs><g transform="matrix(0.1171875 0 0 0.1171875 304 147)" id="L1_1"><path d="M354.986,395.6c-4.087,0-7.469-3.236-7.618-7.353c-0.152-4.211,3.138-7.746,7.348-7.899  c101.628-3.667,127.602-68.493,133.26-89.472c0.276-1.02,0.52-1.923,0.74-2.694l0.524-2.593c5.214-24.328-9.571-48.029-33.64-54.045  c-10.463-2.617-27.775,1.636-36.977,8.022c-6.784,4.708-15.272,13.861-17.184,30.736c-0.474,4.187-4.251,7.185-8.438,6.721  c-4.186-0.474-7.195-4.251-6.721-8.438c2.554-22.557,14.268-35.048,23.645-41.554c12.902-8.952,34.55-13.992,49.373-10.289  c15.459,3.864,28.605,13.442,37.018,26.97c8.393,13.496,11.184,29.472,7.859,44.987l-0.567,2.807  c-0.043,0.208-0.094,0.415-0.153,0.619c-0.221,0.758-0.466,1.672-0.75,2.723c-2.79,10.345-9.325,34.569-29.39,56.436  c-24.795,27.023-70.322,42.586-118.051,44.308C355.172,395.598,355.079,395.6,354.986,395.6z" fill="#b39a7c"/><path d="M454.146,458.603c0,2.166-0.539,4.302-1.597,6.397C439.307,491.475,344.86,512,230.306,512  c-123.626,0-223.85-23.901-223.85-53.397c0-10.303,12.246-19.935,33.472-28.102c39.473-15.175,109.977-25.285,190.377-25.285  C353.933,405.217,454.146,429.118,454.146,458.603z" fill="#a78966"/><path d="M454.146,458.603c0,2.166-0.539,4.302-1.597,6.397c-39.463,15.185-109.967,25.305-190.377,25.305  c-123.626,0-223.839-23.912-223.839-53.397c0-2.166,0.539-4.302,1.597-6.408c39.473-15.175,109.977-25.285,190.377-25.285  C353.933,405.217,454.146,429.118,454.146,458.603z" fill="#b39a7c"/><path d="M406.872,199.664v25.864c0,43.348-7.984,84.906-22.335,120.656  c-14.361,35.74-35.089,65.683-60.577,85.801c-22.152,17.484-46.796,26.617-71.806,26.617h-47.437  c-12.51,0-24.919-2.288-36.971-6.753c-12.063-4.465-23.759-11.117-34.835-19.864C81.934,391.75,49.998,312.225,49.998,225.529  v-25.864H406.872z" fill="#c0ab91"/><path d="M406.872,199.664v25.864c0,43.348-7.984,84.906-22.335,120.656  c-14.361,35.74-35.089,65.683-60.577,85.801c-22.152,17.484-46.796,26.617-71.806,26.617h-12.856  c-12.51,0-24.919-2.288-36.971-6.753c-12.063-4.465-23.759-11.117-34.835-19.864c-50.976-40.236-82.913-119.761-82.913-206.457  v-25.864H406.872z" fill="#d9ccbc"/><path d="M406.872,199.664c0,6.967-5.045,13.588-14.158,19.609c-2.553,1.688-5.421,3.316-8.584,4.902  c-20.057,10.049-52.054,17.941-90.581,22.193c-14.829,1.637-30.614,2.716-47.05,3.183c-5.94,0.163-11.961,0.254-18.063,0.254  c-4.526,0-9.011-0.041-13.456-0.142c-18.104-0.376-35.455-1.505-51.647-3.306c-35.872-3.946-66.08-11.066-86.259-20.138  c-4.933-2.207-9.255-4.536-12.927-6.957c-9.113-6.011-14.148-12.642-14.148-19.599c0-13.039,17.707-24.908,46.735-33.828  c13.283-4.078,28.946-7.547,46.348-10.222c21.369-3.265,45.403-5.36,70.941-5.93c4.75-0.112,9.561-0.163,14.412-0.163  c6.397,0,12.703,0.092,18.918,0.285c23.861,0.702,46.318,2.726,66.436,5.808c19.945,3.061,37.591,7.15,52.003,12.032  C391.453,176.343,406.872,187.5,406.872,199.664z" fill="#ebe5dd"/><path d="M392.714,219.274c-2.553,1.688-5.421,3.316-8.584,4.902c-20.057,10.049-52.054,17.941-90.581,22.193  c-13.863,1.536-28.56,2.573-43.846,3.082c-1.068,0.041-2.136,0.071-3.204,0.102c-5.94,0.163-11.961,0.254-18.063,0.254  c-4.526,0-9.011-0.041-13.456-0.142c-18.104-0.376-35.455-1.505-51.647-3.306c-35.872-3.946-66.08-11.066-86.259-20.138  c-4.933-2.207-9.255-4.536-12.927-6.957c7.964-5.258,19.04-10.049,32.587-14.219c13.283-4.078,28.946-7.547,46.348-10.212  c21.369-3.275,45.403-5.36,70.941-5.94c4.75-0.112,9.561-0.163,14.412-0.163c6.397,0,12.703,0.102,18.918,0.285  c0.814,0.02,1.638,0.051,2.451,0.081c22.945,0.763,44.558,2.746,63.985,5.736c19.945,3.051,37.591,7.15,52.003,12.032  C376.776,210.588,385.879,214.758,392.714,219.274z" fill="#554431"/><path d="M392.714,219.274c-2.553,1.688-5.421,3.316-8.584,4.902c-20.057,10.049-52.054,17.941-90.581,22.193  c-13.863,1.536-28.56,2.573-43.846,3.082c-15.185-0.519-29.78-1.566-43.531-3.092c-35.872-3.946-66.08-11.066-86.259-20.138  c-0.05-0.022-0.099-0.044-0.147-0.066c-5.948-2.671-5.876-11.141,0.072-13.812c5.786-2.599,12.398-5.039,19.735-7.298  c13.283-4.078,28.946-7.547,46.348-10.212c19.386-2.97,40.968-4.963,63.883-5.736c22.945,0.763,44.558,2.746,63.985,5.736  c19.945,3.051,37.591,7.15,52.003,12.032C376.776,210.588,385.879,214.758,392.714,219.274z" fill="#6a563d"/><g><path d="M198.232,36.162c0-4.214-3.415-7.628-7.628-7.628s-7.628,3.414-7.628,7.628   c0,4.758-1.364,6.712-3.624,9.948c-2.689,3.851-6.371,9.125-6.371,18.682s3.683,14.831,6.371,18.683   c2.26,3.236,3.624,5.19,3.624,9.947c0,4.757-1.364,6.711-3.624,9.946c-2.689,3.851-6.371,9.125-6.371,18.681   c0,4.213,3.414,7.628,7.628,7.628l0,0c4.213,0,7.628-3.414,7.628-7.628c0-4.757,1.364-6.711,3.624-9.946   c2.688-3.851,6.371-9.125,6.371-18.681c0-9.557-3.682-14.83-6.371-18.681c-2.26-3.237-3.624-5.191-3.624-9.949   s1.364-6.713,3.624-9.949C194.549,50.992,198.232,45.719,198.232,36.162z" fill="#ebe5dd"/><path d="M273.897,64.792c0-4.759,1.364-6.713,3.624-9.949c2.689-3.851,6.371-9.124,6.371-18.681   c0-4.214-3.414-7.628-7.628-7.628s-7.628,3.414-7.628,7.628c0,4.758-1.364,6.712-3.624,9.948   c-2.689,3.851-6.371,9.125-6.371,18.682s3.682,14.831,6.371,18.682c2.26,3.237,3.624,5.191,3.624,9.948   c0,4.757-1.364,6.711-3.624,9.946c-2.689,3.851-6.371,9.125-6.371,18.681c0,4.214,3.414,7.628,7.628,7.628s7.628-3.414,7.628-7.628   c0-4.758,1.364-6.711,3.624-9.946c2.689-3.851,6.371-9.125,6.371-18.681c0-9.557-3.682-14.83-6.371-18.681   C275.261,71.505,273.897,69.551,273.897,64.792z" fill="#ebe5dd"/><path d="M241.061,7.628c0-4.214-3.415-7.628-7.628-7.628s-7.628,3.414-7.628,7.628   c0,7.556-1.814,10.987-4.112,15.329c-2.621,4.955-5.883,11.122-5.883,22.462s3.262,17.508,5.883,22.463   c2.298,4.344,4.112,7.775,4.112,15.329c0,7.554-1.814,10.983-4.112,15.326c-2.621,4.954-5.883,11.121-5.883,22.461   c0,4.214,3.415,7.628,7.628,7.628s7.628-3.414,7.628-7.628c0-7.554,1.814-10.984,4.112-15.327   c2.621-4.954,5.883-11.121,5.883-22.46c0-11.34-3.262-17.508-5.883-22.463c-2.298-4.344-4.112-7.775-4.112-15.329   s1.814-10.986,4.112-15.328C237.799,25.136,241.061,18.97,241.061,7.628z" fill="#ebe5dd"/></g></g><g transform="matrix(0.11717765778303146 0 0 0.11717765778303146 185 3)" id="L1_3"><path d="M160.982,191.8c4.8-46.368,27.264-91.712,63.264-127.712c74.976-74.912,186.112-85.728,247.744-24  c61.696,61.664,50.912,172.8-24.032,247.744c-36,36-81.344,58.464-127.712,63.232c-6.176,0.64-12.288,0.96-18.272,0.96  c-39.872,0-75.488-13.984-101.728-40.224C170.038,281.656,156.086,239,160.982,191.8z" fill="#8d6e63"/><path d="M468.15,43.928c-20.512,24.736-35.648,52.96-60.8,73.664c-26.816,22.048-56.32,30.08-88.768,39.488  c-71.232,20.64-106.432,80.832-114.528,150.912c22.208-26.72,38.528-56.672,66.624-78.144c24.576-18.752,51.168-26.176,80.096-34.08  C423.542,175.8,459.67,115.096,468.15,43.928z" fill="#6d4c41"/><path d="M351.062,351.8c-4.8-46.368-27.264-91.712-63.264-127.712c-74.976-74.912-186.112-85.728-247.744-24  c-61.696,61.664-50.912,172.8,24.032,247.744c36,36,81.344,58.464,127.712,63.232c6.176,0.64,12.288,0.96,18.272,0.96  c39.872,0,75.488-13.984,101.728-40.224C342.006,441.656,355.958,399,351.062,351.8z" fill="#795548"/><path d="M43.894,203.928c20.512,24.736,35.648,52.96,60.8,73.664c26.816,22.048,56.32,30.08,88.768,39.488  c71.2,20.672,106.4,80.864,114.528,150.912c-22.208-26.72-38.528-56.672-66.624-78.144c-24.576-18.752-51.168-26.176-80.096-34.08  C88.502,335.8,52.374,275.096,43.894,203.928z" fill="#5d4037"/></g></defs><g fi:class="KUsePattern"><pattern id="pattern_L1_1" width="350" height="350" patternUnits="userSpaceOnUse"><use xlink:href="#L1_1" x="-350" y="-350"/><use xlink:href="#L1_1" x="0" y="-350"/><use xlink:href="#L1_1" x="350" y="-350"/><use xlink:href="#L1_1" x="-350" y="0"/><use xlink:href="#L1_1" x="0" y="0"/><use xlink:href="#L1_1" x="350" y="0"/><use xlink:href="#L1_1" x="-350" y="350"/><use xlink:href="#L1_1" x="0" y="350"/><use xlink:href="#L1_1" x="350" y="350"/></pattern><rect x="0" y="0" width="100%" height="100%" fill="url(#pattern_L1_1)"/></g><g fi:class="KUsePattern"><pattern id="pattern_L1_3" width="350" height="350" patternUnits="userSpaceOnUse"><use xlink:href="#L1_3" x="-350" y="-350"/><use xlink:href="#L1_3" x="0" y="-350"/><use xlink:href="#L1_3" x="350" y="-350"/><use xlink:href="#L1_3" x="-350" y="0"/><use xlink:href="#L1_3" x="0" y="0"/><use xlink:href="#L1_3" x="350" y="0"/><use xlink:href="#L1_3" x="-350" y="350"/><use xlink:href="#L1_3" x="0" y="350"/><use xlink:href="#L1_3" x="350" y="350"/></pattern><rect x="0" y="0" width="100%" height="100%" fill="url(#pattern_L1_3)"/></g></svg>